<svg id="Layer_1" data-name="Layer 1" xmlns="http://www.w3.org/2000/svg" viewBox="0 0 3040.13 2762.46"><defs><style>.cls-1{fill:#fff;}</style></defs><path class="cls-1" d="M917,3331.14c0,6.18-12.66,11.57-31.59,14.53a22.33,22.33,0,0,0-18.57,18.58c-3,18.92-8.36,31.58-14.53,31.58s-11.57-12.66-14.54-31.58a22.33,22.33,0,0,0-18.58-18.58c-18.93-3-31.63-8.35-31.63-14.53s12.69-11.61,31.61-14.56a22.34,22.34,0,0,0,18.6-18.58c3-18.94,8.36-31.61,14.54-31.61s11.56,12.67,14.53,31.61a22.33,22.33,0,0,0,18.6,18.58C904.31,3319.53,917,3324.92,917,3331.14Z" transform="translate(-472.25 -815.77)"/><path class="cls-1" d="M3512.27,2671.72c-1.33,6-14.85,8.55-33.94,7.36a22.32,22.32,0,0,0-22.13,14.11c-7,17.82-15,29-21,27.68s-8.55-14.85-7.36-33.95a22.3,22.3,0,0,0-14.11-22.12c-17.83-7-29-15-27.72-21s14.88-8.59,34-7.38a22.32,22.32,0,0,0,22.15-14.11c7-17.84,15-29,21-27.69s8.55,14.84,7.36,34a22.3,22.3,0,0,0,14.13,22.13C3502.43,2657.66,3513.61,2665.66,3512.27,2671.72Z" transform="translate(-472.25 -815.77)"/><path class="cls-1" d="M3000.33,987.76c0,6.84-14,12.81-35,16.1a24.73,24.73,0,0,0-20.57,20.57c-3.29,21-9.25,35-16.1,35s-12.81-14-16.1-35a24.73,24.73,0,0,0-20.57-20.57c-21-3.29-35-9.26-35-16.1s14.05-12.86,35-16.12a24.73,24.73,0,0,0,20.6-20.58c3.29-21,9.26-35,16.1-35s12.81,14,16.1,35a24.74,24.74,0,0,0,20.6,20.58C2986.31,974.9,3000.33,980.88,3000.33,987.76Z" transform="translate(-472.25 -815.77)"/><circle class="cls-1" cx="3201.23" cy="1460.99" r="18.45" transform="translate(-567.71 1875.75) rotate(-45)"/><circle class="cls-1" cx="3169.17" cy="2972.47" r="17.22" transform="translate(-1117.85 4236.79) rotate(-71.77)"/><circle class="cls-1" cx="3344.58" cy="3266.87" r="21.88" transform="matrix(1, 0, 0, 1, -481.51, -806.26)"/><circle class="cls-1" cx="1150.28" cy="1306.51" r="25.29" transform="translate(-663.52 1599.95) rotate(-88.22)"/><circle class="cls-1" cx="2001.93" cy="302.28" r="18.45"/><circle class="cls-1" cx="958.36" cy="841.06" r="25.29" transform="translate(-718.09 -393.92) rotate(-22.08)"/><circle class="cls-1" cx="563.33" cy="3064.54" r="20.72" transform="translate(-3020.57 2086.36) rotate(-76.6)"/><circle class="cls-1" cx="2977.13" cy="1028.21" r="9.49"/><circle class="cls-1" cx="2755.13" cy="3361.23" r="11.25" transform="translate(-2060.08 2710.8) rotate(-52.84)"/><circle class="cls-1" cx="1458.85" cy="901.5" r="13.01" transform="translate(-679.43 -320.82) rotate(-18)"/><circle class="cls-1" cx="688.4" cy="1430.33" r="13.01" transform="translate(-828.67 -580.47) rotate(-15.46)"/><path class="cls-1" d="M836.2,1891a10.65,10.65,0,1,1-10.36-11A10.66,10.66,0,0,1,836.2,1891Z" transform="translate(-472.25 -815.77)"/><circle class="cls-1" cx="493.88" cy="2008.93" r="21.62" transform="translate(-1590.22 -103.64) rotate(-37.37)"/><path class="cls-1" d="M917,3513.53c0,6.18-12.66,11.57-31.59,14.54a22.33,22.33,0,0,0-18.57,18.57c-3,18.92-8.36,31.59-14.53,31.59s-11.57-12.67-14.54-31.59a22.33,22.33,0,0,0-18.58-18.57c-18.93-3-31.63-8.36-31.63-14.54s12.69-11.61,31.61-14.55a22.34,22.34,0,0,0,18.6-18.58c3-19,8.36-31.61,14.54-31.61s11.56,12.66,14.53,31.61A22.33,22.33,0,0,0,885.4,3499C904.31,3501.92,917,3507.32,917,3513.53Z" transform="translate(-472.25 -815.77)"/><path class="cls-1" d="M3512.27,2854.11c-1.33,6-14.85,8.55-33.94,7.37a22.31,22.31,0,0,0-22.13,14.11c-7,17.81-15,29-21,27.67s-8.55-14.85-7.36-33.94a22.3,22.3,0,0,0-14.11-22.12c-17.83-7-29-15-27.72-21s14.88-8.59,34-7.38a22.32,22.32,0,0,0,22.15-14.11c7-17.84,15-29,21-27.7s8.55,14.85,7.36,34a22.31,22.31,0,0,0,14.13,22.13C3502.43,2840.06,3513.61,2848.05,3512.27,2854.11Z" transform="translate(-472.25 -815.77)"/><path class="cls-1" d="M3000.33,1170.16c0,6.84-14,12.81-35,16.1a24.73,24.73,0,0,0-20.57,20.57c-3.29,21-9.25,35-16.1,35s-12.81-14-16.1-35a24.73,24.73,0,0,0-20.57-20.57c-21-3.29-35-9.26-35-16.1s14.05-12.86,35-16.12a24.72,24.72,0,0,0,20.6-20.59c3.29-21,9.26-35,16.1-35s12.81,14,16.1,35a24.74,24.74,0,0,0,20.6,20.58C2986.31,1157.3,3000.33,1163.28,3000.33,1170.16Z" transform="translate(-472.25 -815.77)"/><circle class="cls-1" cx="3201.23" cy="1643.39" r="18.45" transform="translate(-696.69 1929.17) rotate(-45)"/><circle class="cls-1" cx="3169.17" cy="3154.87" r="17.22" transform="translate(-1291.09 4362.12) rotate(-71.77)"/><circle class="cls-1" cx="3344.58" cy="3449.27" r="21.88" transform="translate(-482.03 -806.26) rotate(-0.16)"/><circle class="cls-1" cx="1150.28" cy="1488.91" r="25.29" transform="translate(-845.83 1776.69) rotate(-88.22)"/><circle class="cls-1" cx="2001.93" cy="484.68" r="18.45"/><circle class="cls-1" cx="958.36" cy="1023.46" r="25.29" transform="translate(-786.65 -380.54) rotate(-22.08)"/><circle class="cls-1" cx="563.33" cy="3246.93" r="20.72" transform="translate(-3198 2226.48) rotate(-76.6)"/><circle class="cls-1" cx="2977.13" cy="1210.61" r="9.49"/><circle class="cls-1" cx="2755.13" cy="3543.63" r="11.25" transform="translate(-2205.44 2783.02) rotate(-52.84)"/><circle class="cls-1" cx="1458.85" cy="1083.89" r="13.01" transform="translate(-735.8 -311.89) rotate(-18)"/><circle class="cls-1" cx="688.4" cy="1612.73" r="13.01" transform="translate(-877.29 -573.87) rotate(-15.46)"/><path class="cls-1" d="M836.2,2073.37a10.65,10.65,0,1,1-10.36-10.94A10.66,10.66,0,0,1,836.2,2073.37Z" transform="translate(-472.25 -815.77)"/><circle class="cls-1" cx="493.88" cy="2191.33" r="21.62" transform="translate(-1700.92 -66.2) rotate(-37.37)"/></svg>